<svg width="799" height="279" viewBox="0 0 799 279" fill="none" xmlns="http://www.w3.org/2000/svg">
<path d="M4.97778 156.361C4.97778 156.361 -6.22222 143.161 4.97778 119.761C16.1778 96.3614 61.9778 18.5614 61.9778 18.5614C61.9778 18.5614 70.0778 -0.238609 83.7778 0.261391C97.5778 0.761391 208.378 0.261391 208.378 0.261391C208.378 0.261391 226.778 -2.3386 234.378 8.8614C241.978 20.0614 248.078 36.8614 248.078 36.8614H103.678L48.7778 134.661C48.7778 134.661 46.4778 139.961 48.1778 144.661C49.8778 149.461 69.0778 182.661 69.0778 182.661H156.678L170.378 158.361L84.1778 157.461L77.1778 146.861C77.1778 146.861 72.7778 141.361 77.4778 132.161C82.1778 122.961 116.578 62.3614 116.578 62.3614L262.578 61.7614L300.878 129.061C300.878 129.061 307.578 140.561 300.878 152.761C294.278 164.961 240.278 261.161 240.278 261.161C240.278 261.161 233.278 277.861 223.178 278.561C213.078 279.261 81.2778 278.561 81.2778 278.561C81.2778 278.561 64.8778 276.861 54.4778 244.061C83.3778 243.761 199.778 243.761 199.778 243.761L254.178 147.161C254.178 147.161 257.178 139.161 253.978 134.061C250.878 128.961 235.178 98.5614 235.178 98.5614L145.678 97.9614L132.578 121.861L217.578 122.261L228.678 133.261C228.678 133.261 230.578 140.561 228.578 143.661C226.578 147.061 187.278 217.661 187.278 217.661L40.3778 218.161L4.97778 156.361Z" fill="#EC2224"/>
<path d="M325.078 183.661V161.961H349.378V186.561C349.378 192.561 354.278 197.361 360.478 197.361C366.478 197.361 371.378 192.561 371.378 186.561V179.461C371.378 175.461 370.478 171.961 367.978 168.561L336.578 125.761C328.278 114.361 325.078 105.761 325.078 95.1612V93.4612C325.078 74.9612 341.678 59.7612 360.478 59.7612C379.978 59.7612 395.878 75.7612 395.878 95.1612V116.861H371.378V92.3612C371.378 86.3612 366.478 81.4612 360.478 81.4612C354.278 81.4612 349.378 86.3612 349.378 92.3612V99.4612C349.378 103.461 350.578 106.861 352.778 110.361L384.178 153.461C391.878 164.261 395.678 172.261 395.878 181.961V183.661C395.878 203.061 379.978 219.061 360.478 219.061C341.078 219.061 325.078 203.061 325.078 183.661Z" fill="#0A1223"/>
<path d="M443.58 215.062C425.08 215.062 415.08 205.062 415.08 186.562V85.4615H399.68V63.7615H415.08V29.5615H439.28V63.7615H454.68V85.4615H439.28V184.862C439.28 190.262 442.48 193.362 447.88 193.362H454.68V215.062H443.58Z" fill="#0A1223"/>
<path d="M464.18 215.061V61.7612H488.38V68.6612H489.28C493.28 63.2612 498.98 59.7612 507.28 59.7612H512.38V81.4612H507.28C496.08 81.4612 488.38 86.0612 488.38 95.1612V215.061H464.18Z" fill="#0A1223"/>
<path d="M521.277 12.4614H545.477V42.0614H521.277V12.4614ZM521.277 63.8614H545.477V215.161H521.277V63.8614Z" fill="#0A1223"/>
<path fill-rule="evenodd" clip-rule="evenodd" d="M561.48 266.461V61.7612H585.781V67.4612H586.88C591.18 62.6612 597.18 59.7612 605.48 59.7612C624.88 59.7612 632.281 75.7612 632.281 95.1612V183.661C632.281 203.061 624.88 219.061 605.48 219.061C597.48 219.061 591.48 216.261 587.18 211.661H585.781V266.461H561.48ZM607.68 186.561V92.6612C607.68 86.3612 602.88 81.4612 596.88 81.4612C590.58 81.4612 585.68 86.3612 585.68 92.6612V186.561C585.68 192.561 590.58 197.361 596.88 197.361C602.88 197.361 607.68 192.561 607.68 186.561Z" fill="#0A1223"/>
<path fill-rule="evenodd" clip-rule="evenodd" d="M646.578 183.662V95.4615C646.578 76.0615 662.578 60.0615 681.978 60.0615C701.378 60.0615 717.378 76.0615 717.378 95.4615V142.262H670.778V186.262C670.778 192.562 675.678 197.362 681.978 197.362C687.978 197.362 692.778 192.562 692.778 186.262V158.262H717.378V183.662C717.378 203.062 701.378 219.062 681.978 219.062C662.578 219.062 646.578 203.062 646.578 183.662ZM670.778 120.562H692.778V92.6615C692.778 86.6615 687.978 81.7615 681.978 81.7615C675.678 81.7615 670.778 86.6615 670.778 92.6615V120.562Z" fill="#0A1223"/>
<path d="M727.578 183.661V161.961H751.878V186.561C751.878 192.561 756.778 197.361 762.978 197.361C768.978 197.361 773.878 192.561 773.878 186.561V179.461C773.878 175.461 772.978 171.961 770.478 168.561L739.078 125.761C730.778 114.361 727.578 105.761 727.578 95.1612V93.4612C727.578 74.9612 744.178 59.7612 762.978 59.7612C782.378 59.7612 798.378 75.7612 798.378 95.1612V116.861H773.878V92.3612C773.878 86.3612 768.978 81.4612 762.978 81.4612C756.778 81.4612 751.878 86.3612 751.878 92.3612V99.4612C751.878 103.461 752.978 106.861 755.278 110.361L786.678 153.461C794.378 164.261 798.078 172.261 798.378 181.961V183.661C798.378 203.061 782.378 219.061 762.978 219.061C743.578 219.061 727.578 203.061 727.578 183.661Z" fill="#0A1223"/>
<path d="M339.678 257.562H325.078V238.062H339.278V240.362H327.678V246.362H338.478V248.661H327.678V255.262H339.678V257.562Z" fill="#0A1223"/>
<path d="M362.779 257.562H360.079L349.879 242.262V257.562H347.379V238.062H350.079L360.279 253.362V238.062H362.779V257.562Z" fill="#0A1223"/>
<path d="M388.479 254.861C386.012 256.861 383.312 257.861 380.379 257.861C377.379 257.861 374.979 256.961 373.179 255.161C371.312 253.361 370.379 250.928 370.379 247.861C370.379 245.994 370.779 244.261 371.579 242.661C372.312 241.128 373.412 239.894 374.879 238.961C376.346 238.094 378.112 237.661 380.179 237.661C382.379 237.661 384.146 238.161 385.479 239.161C386.812 240.094 387.712 241.528 388.179 243.461L385.879 244.161C385.479 242.761 384.812 241.694 383.879 240.961C382.946 240.228 381.712 239.861 380.179 239.861C377.846 239.861 376.079 240.594 374.879 242.061C373.679 243.528 373.079 245.394 373.079 247.661C373.079 249.461 373.379 250.928 373.979 252.061C374.579 253.194 375.446 254.061 376.579 254.661C377.712 255.261 378.946 255.561 380.279 255.561C382.346 255.561 384.246 254.894 385.979 253.561V249.961H380.179V247.561H388.479V254.861Z" fill="#0A1223"/>
<path d="M396.777 238.062H399.377V257.562H396.777V238.062Z" fill="#0A1223"/>
<path d="M423.478 257.562H420.778L410.578 242.262V257.562H408.078V238.062H410.778L420.978 253.362V238.062H423.478V257.562Z" fill="#0A1223"/>
<path d="M446.479 257.562H431.879V238.062H445.979V240.362H434.479V246.362H445.279V248.661H434.479V255.262H446.479V257.562Z" fill="#0A1223"/>
<path d="M468.78 257.562H454.18V238.062H468.28V240.362H456.68V246.362H467.58V248.661H456.68V255.262H468.78V257.562Z" fill="#0A1223"/>
<path fill-rule="evenodd" clip-rule="evenodd" d="M493.68 257.562H490.38C488.447 254.495 487.247 252.595 486.78 251.862C486.314 251.195 485.814 250.595 485.28 250.062C484.747 249.595 484.247 249.295 483.78 249.161C483.38 249.028 482.78 248.962 481.98 248.962H478.98V257.562H476.48V238.062H485.08C486.28 238.062 487.28 238.128 488.08 238.262C488.88 238.395 489.58 238.695 490.18 239.161C490.78 239.695 491.247 240.328 491.58 241.062C491.914 241.795 492.08 242.562 492.08 243.362C492.08 244.828 491.614 246.028 490.68 246.962C489.747 247.828 488.38 248.395 486.58 248.661C487.847 249.261 489.08 250.462 490.28 252.262L493.68 257.562ZM478.98 246.562H484.58C485.647 246.562 486.514 246.495 487.18 246.362C487.847 246.162 488.38 245.761 488.78 245.161C489.18 244.628 489.38 244.028 489.38 243.362C489.38 242.495 489.047 241.728 488.38 241.062C487.714 240.462 486.647 240.161 485.18 240.161H478.98V246.562Z" fill="#0A1223"/>
<path d="M500.48 238.062H503.081V257.562H500.48V238.062Z" fill="#0A1223"/>
<path d="M527.177 257.562H524.577L514.377 242.262H514.277V257.562H511.777V238.062H514.477L524.677 253.362V238.062H527.177V257.562Z" fill="#0A1223"/>
<path d="M552.879 254.861C550.412 256.861 547.746 257.861 544.879 257.861C541.879 257.861 539.446 256.961 537.579 255.161C535.779 253.361 534.879 250.928 534.879 247.861C534.879 245.994 535.246 244.261 535.979 242.661C536.712 241.128 537.812 239.894 539.279 238.961C540.746 238.094 542.546 237.661 544.679 237.661C546.879 237.661 548.646 238.161 549.979 239.161C551.312 240.094 552.179 241.528 552.579 243.461L550.279 244.161C549.946 242.761 549.312 241.694 548.379 240.961C547.446 240.228 546.212 239.861 544.679 239.861C542.279 239.861 540.479 240.594 539.279 242.061C538.146 243.528 537.579 245.394 537.579 247.661C537.512 249.461 537.779 250.928 538.379 252.061C538.979 253.194 539.846 254.061 540.979 254.661C542.112 255.261 543.346 255.561 544.679 255.561C546.746 255.561 548.646 254.894 550.379 253.561V249.961H544.679V247.561H552.879V254.861Z" fill="#0A1223"/>
</svg>
